<?xml version="1.0" encoding="utf-8"?>
<!-- Generator: Adobe Illustrator 26.5.2, SVG Export Plug-In . SVG Version: 6.00 Build 0)  -->
<svg version="1.1" id="Ebene_1" xmlns="http://www.w3.org/2000/svg" xmlns:xlink="http://www.w3.org/1999/xlink" x="0px" y="0px"
	 viewBox="0 0 971.6 971.6" style="enable-background:new 0 0 971.6 971.6;" xml:space="preserve">
<style type="text/css">
	.st0{fill:#FFFFFF;}
</style>
<rect x="-0.8" y="-2.3" class="st0" width="971.3" height="973"/>
<path d="M507.4,388.3l23.1-138.7c1.9-11.4,11.8-19.8,23.4-19.8c7.5,0,14.5,3.5,19,9.5l16.9,22.5h52.1c12.7,0,24.9,5.1,33.9,14.1
	l18,17.9h56c13.3,0,24,10.7,24,24v24c0,44.2-35.8,80-80,80h-32h-16h-21.3l-5.1,30.5L507.4,388.3z M613.8,485.9v223.9
	c0,17.7-14.3,32-32,32h-32c-17.7,0-32-14.3-32-32V594.6c-24,12.3-51.2,19.2-80,19.2s-56-6.9-80-19.2v115.2c0,17.7-14.3,32-32,32h-32
	c-17.7,0-32-14.3-32-32V479.6c-28.8-10.9-51.4-35.3-59.2-66.5l-3.8-15.5c-4.3-17.1,6.1-34.5,23.3-38.8s34.5,6.1,38.8,23.3l3.9,15.5
	c3.5,14.2,16.3,24.2,31,24.2h30h16h159.8L613.8,485.9z M661.8,309.8c0-8.8-7.2-16-16-16s-16,7.2-16,16s7.2,16,16,16
	S661.8,318.6,661.8,309.8z"/>
</svg>
