<?xml version="1.0" encoding="UTF-8"?>
<svg xmlns="http://www.w3.org/2000/svg" version="1.1" viewBox="0 0 971.6 971.6">
  <defs>
    <style>
      .cls-1 {
        fill: #1d1d1b;
      }

      .cls-2 {
        fill: #fff;
      }
    </style>
  </defs>
  <!-- Generator: Adobe Illustrator 28.7.1, SVG Export Plug-In . SVG Version: 1.2.0 Build 142)  -->
  <g>
    <g id="Ebene_1">
      <rect class="cls-2" x="-.8" y="-2.3" width="971.3" height="973"/>
      <path class="cls-1" d="M704.1,720.2c-7.6-10.7-32.2-40.1-41.4-51.1-9.2-11-14.2-28.1-24.6-62.4-10.5-34.3-41.2-65.8-55.6-81.3-14.4-15.5-64.2-75.2-69.5-85.2-5.2-10-40.9-49.3-46.9-57.9-6-8.7-7.6-17.8-6-53,1.6-35.1-5-55.7-6.2-62.8-1.2-7.1,4.1-8,7.6-6.8,3.5,1.2,14,17.2,14.9,16.6.9-.5-.4-11-1.6-15.7-1.2-4.7-12.5-18.1-15.6-22.3-3.1-4.2-11-17.8-13.1-24.6-2.1-6.8-4.7-12.1-11.5-16.8-6.8-4.7-38.3-21-43.5-23.6-5.2-2.6-11.5,4.2-16.8,6.3-5.2,2.1-13.1-5.2-19.4-9.4-6.3-4.2-34.1-20.4-39.3-21.5-5.2-1-6.3,8.4-12.1,14.7,0,0-7.1,5.7-6.8,9.6.3,3.4,1.6,10.6,0,22.4-1.6,11.8,12.2,25.6,21.6,33.4,9.4,7.9,21.2,29.9,21.6,34.2s-5.9,13.4-5.5,18.9,5.1,20.4,2.4,33.4c-2.8,13-8.3,40.9-9.4,58.6-1.2,17.7-4.3,9.4-15.7,29.1-11.4,19.7-7.5,71.6-3.5,88.9,3.9,17.3,14.9,48.4,15.3,53.1.4,4.7-.4,35.4-.4,49.9s-12.2,60.6-16.5,67.2c-4.3,6.7-20.4,8.3-27.9,9.8-7.5,1.6-9.4,16.1-5.1,18.5s4.7,8.3,4.7,9.8,12.2.8,22.8,0c10.6-.8,10.2,5.5,9.8,13.8-.4,8.3-4.3,11-9,11.4s-11.4,2.4-17.7,8.7c-6.3,6.3-5.1,16.9.8,21.6,5.9,4.7,21.2,8.3,35.4,5.9,14.2-2.4,14.2-20.1,16.1-36.6,2-16.5,5.1-20.1,11-22.8,5.9-2.8,6.7-12.6,4.3-18.5-2.4-5.9,2-18.9,3.9-24,2-5.1,13.4-45.6,14.9-56.2,1.6-10.6,5.1-6.7,9-4.3,3.9,2.4,15.3,12.2,20.4,21.6,5.1,9.4,14.9,27.1,20.1,30.7,5.1,3.5,5.9,7.1-2,10.2-7.9,3.1,1.2,22,6.3,22.4,5.1.4,8.3,5.9,10.6,11.4s19.7,5.5,27.1,7.1c7.5,1.6,17.7,4.7,28.3,13.4,10.6,8.7,18.5,17.7,17.3,21.2-1.2,3.5-13,3.1-20.1,2-7.1-1.2-41.3-6.3-52.7-4.3s-21.6,14.2-21.6,22.8,21.6,7.1,30.7,8.7c9,1.6,31.9,4.3,40.5,3.9,8.7-.4,77.9,1.2,81.4.4s3.9-14.6,4.3-16.9c.4-2.4,7.9-2,14.6-3.9s11.8-7.5,19.3-18.5c7.5-11,15.3-13,27.9-15.7,12.6-2.8,18.9,7.1,27.1,13.4,8.3,6.3,18.1,17.7,18.1,23.2s-2,13.4-16.9,19.3c-14.9,5.9-43.8,2.4-48.8.5-5-1.9-16.9-11.1-18.8-11.4s-2,2.4-2.1,4.9c0,2.6,6.6,11.4,22.5,20.3,16,8.9,36.7,12.8,64.5,7.3,27.8-5.5,35.4-29.9,37.5-40.4,2.1-10.5-3.7-21.8-11.3-32.5ZM438.7,561.1l-67.2-83,77.9-103.8,108.9,131-119.6,55.8Z"/>
      <path class="cls-1" d="M508.9,460.7l-21.6-27-28.4,22.8-22.6-28.3-25.7,20.6,22.7,28.4-28.4,22.8,21.6,27,28.4-22.7,21.6,27.1,25.7-20.6-21.7-27.1,28.5-22.8ZM494.6,509.7l-17.9,14.3-21.8-27.3-27.6,22.1-14.4-17.9,27.6-22.1-22.6-28.3,17.9-14.3,22.6,28.3,27.9-22.4,14.4,17.9-28,22.4,21.8,27.3Z"/>
    </g>
  </g>
</svg>