<?xml version="1.0" encoding="UTF-8"?>
<svg xmlns="http://www.w3.org/2000/svg" version="1.1" viewBox="0 0 971.6 971.6">
  <defs>
    <style>
      .cls-1, .cls-2 {
        fill-rule: evenodd;
      }

      .cls-1, .cls-3 {
        fill: #fff;
      }

      .cls-2 {
        fill: #1d1d1b;
      }
    </style>
  </defs>
  <!-- Generator: Adobe Illustrator 28.7.1, SVG Export Plug-In . SVG Version: 1.2.0 Build 142)  -->
  <g>
    <g id="Ebene_1">
      <rect class="cls-3" x="-.8" y="-2.3" width="971.3" height="973"/>
      <g>
        <path class="cls-2" d="M722.8,326.4l-4.8-1-5.3-.5-5.2-.6-17.6-1.6-2.6-.5-4.8-1-8.4-2.7-13.8-4.2-4.7-2.2-8.5-3.6-2.1-1.1-4.8-2.1-10.6-6.4-10.6-6.9-5.8-5.2-12.2-9.6-6.4-5.9-6.9-7.4-6.4-7.5-4.7-7.4-7-10.5-5.8-10.7-.6-1.5-2.1-4.7-2-5.3c9.2-3.4,15.8-12.1,15.8-22.5s-10.8-24-24-24-24,10.8-24,24,4.9,16.6,12,20.7v.6l-3.1,6.9-4.3,6.4-4.4,5.9-5.2,5.8-4.8-6.4-4.7-6.9-8-13.8.7-.7c8-4.5,13.5-13.1,13.5-22.9,0-14.6-11.8-26.4-26.4-26.4s-26.4,11.8-26.4,26.4,3.6,15,9.2,19.9l-.8,2.8-1,3.2-4.3,9.6-5.4,9-5.8,9.6-5.8,9-2.7,2.7-5.3,5.9-4.8,5.3-4.7,4.2-5.9,5.3-6.4,5.3-6.4,4.8-6.9,4.2-6.9,4.3-6.9,3.7-14.2,6.9-8,2.7-7.5,2.7-10.6,2.7-11.7,3.1-8.5,1.7-8.4,1.5-8.5,1-8,1.6-10.6.6-20.7,2.1-6.4.6h-2.7l-2.6.5-2.2,1-2.1,1.7-2.2,2.1-1.5,3.1-.6,3.8v3.7l.6,3.2.5,2,1,1.6,1.6,3.2,2.1,2.2,1.7,2,2,1.7,4.8,3.1,7.4,4.8,7.5,4.2,12.7,8,11.7,8.5,11.7,9,4.8,5.3,3.1,2.7,4.8,6.4,7.4,9.6,6.4,10,5.8,10.1,5.3,10.5,2.7,6.9,3.2,6.9,4.2,13.3,4.3,13.3.5,3.1.6,3.2,1.1,2.1,2.1,16,.6,4.7.6,4.7,1,3.2,2,2.6,1.7,2.2,1.5,1,2.7,2.2,2.6,1.5,5.9,2.7,5.9,2.7,12.2,4.7-.6,4.3-3.2,8.4-3.1,8.4-12.7,33.5-14.4,38.2-6.4,16.5-3,9-2.2,4.3-2.7,4.2-9.6,18.1-3.7,8.5-11.7,25.4v1l4.2,1.6,1-.5,1.7-4.9,2.1-4.2,8.5-17.5,6.8-13.2,5.4-10.1h1l2,1-3.6,6.9-7.5,18.6-10.6,24.9v1.6l2.7,1,2.7.6,14.4-32.9,5.8-12.8,1.1-3.2,1.5-3.1h1.5l1.1,1-9.6,26-10,25.5.6,1.6,3.7,1.6,1-.5,8.4-24,11.2-27.5,5.3,1v1.5l-6.8,18.6-8,21.2-2.2,5.9-2.2,5.8,4.8,1.6.6-.6,9.5-25.4,9.6-26h1.6l3.7,1.5-.5,2.7-8.5,24.8-8.4,24.9,5.2,1.6,1-4.7,1.7-4.3,3-10,6.4-18.1,5.8-14.2h1.7l.9.5,2.2,1-10.1,31.8-6.4,20.1,5.4,1.6,6.3-20.7,5.9-17.5,4.7-12.7h2.2v1.6l-6.9,26-6.4,25.5,5.3.9,2.7-11.1,3.1-11.6,8-28.2,4.8,1.5v2.2l-6.4,24.9-6.4,24.4,5.9,1.6,3.8-15.9,4.3-15.5,3.1-12.7,1-4.2,1.6-3.8,2.7-5.8,1.5-6.4,2.2-3.8,39.3-120.4,2.6-6.4h7.5l34.5,94.4,8,23.4,3.7,8.9,2.6,9.1,2.2,9,3.8,13.7,2.6,11.2,6.9,30.8,5.9-1.7.6-1-3.2-10-2.7-10-4.2-18.6-4.3-18.5,3.2-1.7,1,.6,7.4,28.7,8,28.1,3.2-1.1,1.6-.5,1-1v-1.6l-1.6-5.9-2.7-8.4-11.7-39.8-.6-1.5,3.2-1.1,10.1,28.1,10,27.6,2.7-.5,2.1-.5.6-1.6-12.7-35.5-3.8-9.6-2.1-5.3-1-5.2,2.1-1.1,2.7-.6h1l4.3,10.1,3.7,10.5,11.7,35.1,5.9-1.6v-1.6l-9.6-26.4-10-28.2v-1.1l2.7-.5,2.7-.6,1,2.7,1.6,5.2,3.7,8,9,22.8,3.2,8.5,2.6,8,5.4-1.6-21.2-56.3,1.6-.5,1.5-1,.6.5,6.4,13.4,5.3,12.7,11.7,28.1h1.1l1.5-.5,2.7-1.6-8.5-19.7-8.4-19-5.8-14.4v-1.6l1.5-.6h2.2l11.1,25,6.4,13.7,3.2,6.9,2.7,6.9.6.6,4.3-2.2v-1l-22.4-50.9v-1.6l1.7-.6,2-.6,10.1,20.3,2.7,4.3,12.8,26.4,2.6-.6,2.2-1,.5-1.5-14.9-29.8-7.4-14.9-7.5-14.8v-1.1l-1.5-2.1-4.3-10.6-4.3-11.2-14.9-39.2-12.7-33.9-3.7-8.4-2.7-9.1,5.3-1.5,5.8-2.2,7.5-4.3,3.2-2.1,2.6-2.7,3.2-3.7,2.7-3.7,2.2-4.3,1-4.7,1.5-9.7,2.7-14.8,1.5-6.8,2.2-7.5,2.6-7.4,2.7-7.5,3.7-7.4,3.7-7.4,8.5-13.8,9-13.3,4.3-6.4,5.3-5.8,9-10.6,10-10.1,10.1-9.5,5.8-5.3,5.3-5.4,3.8-2.6,3.7-2.2,4.7-3.7,4.7-3.2,9.1-5.2,4.2-3.2,3.8-3.8,1.6-2.6,1.5-5.9-1.5-3.7-2.2-3.7-1.6-1.6-2.2-1.1-2.6-1Z"/>
        <polygon class="cls-2" points="339.5 585.9 371.4 547.6 322 556.2 305 509.5 288.1 556.2 239.2 547.6 271.1 585.9 239.2 624.1 288.1 615.5 305 662.3 322 615.5 371.4 624.1 339.5 585.9"/>
        <polygon class="cls-2" points="681.8 509.5 664.8 556.2 616 547.6 647.9 585.9 616 624.1 664.8 615.5 681.8 662.3 698.9 615.5 747.7 624.1 715.8 585.9 747.7 547.6 698.9 556.2 681.8 509.5"/>
        <path class="cls-2" d="M693.7,133.9H192.5v376.1l.5,15.4,1.1,15.4,2.1,14.9,2.7,14.9,3.2,14.9,4.3,14.3,4.7,13.8,5.3,13.7,5.9,13.3,6.8,12.7,7.4,12.7,7.5,12.2,8.5,11.7,9,11.7,9.6,10.7,10.1,10.6,10,10,11.2,9,11.2,9,11.7,8.5,12.2,8,12.7,6.8,13.3,6.9,13.3,5.9,13.3,5.2,14.3,4.8,14.3,4.3,14.4,3.1,14.8,2.7,14.9,2.2,15.4,1,15.5.6,15.9-.6,14.9-1,15.4-2.2,14.8-2.7,14.4-3.1,14.3-4.3,13.8-4.8,13.7-5.2,13.3-5.9,13.3-6.9,12.2-6.8,12.2-8,12.2-8.5,11.1-9,11.2-9,10.1-10,10-10.6,9.6-10.7,9.1-11.7,8.4-11.7,7.5-12.2,7.4-12.7,6.4-12.7,6.4-13.3,5.3-13.7,4.7-13.8,3.8-14.3,3.7-14.9,2.7-14.9,1.6-14.9,1.6-15.4V133.9h-100.8ZM766.5,147.2h14.6v376.1l-1,14.9-2,14.3-2.7,14.3-3.2,13.8-3.7,13.7-4.7,13.3-4.7,13.3-5.9,12.7-6.4,12.7-6.9,12.2-7.5,11.7-8,11.2-8.4,11.2-9,10-9.6,10-10,9.5-10.6,9.7-10.6,8.4-11.8,8-11.6,7.5-11.8,6.9-12.8,6.3-12.7,5.9-12.7,5.3-13.7,4.3-13.4,4.2-13.7,3.2-14.3,2.7-14.3,1.6-14.9,1-14.9.6-14.9-.6-14.3-1-14.3-1.6-14.4-2.7-13.7-3.2-13.7-4.2-13.4-4.3-13.2-5.3-12.8-5.9-12.2-6.3-12.1-6.9-11.7-7.5-11.2-8-10.6-8.4-10.7-9.7-10-9.5-9.5-10-9.1-10-8.4-11.2-8-11.2-7.5-11.7-6.9-12.2-6.3-12.7-6-12.7-5.2-13.3-4.3-13.3-4.3-13.7-3.1-13.8-2.1-14.3-2.2-14.3-1-14.9-.6-14.9V147.2h560.7Z"/>
      </g>
      <path id="path2748" class="cls-1" d="M435.1,689.4h0l-11.1-4.3-11.8-4.3h0l-30.2-11.7h0l-.5-1.6h0l1-2.7h0l3.1-7.4h0l6.9-18.6,27-70h0l8-18.5h0l1.7-.6,2.1.6h0v2.7h0l-10.6,27.6-10.6,28.1h0l-21.2,54.7h0v2.1h0l3.7,1.6,4.3,2.1,8,2.7h0l26.5,10h0l2.7.6h0l.5-1.6.6-2.2.5-3.7h0l14.4-41.8h0l6.9-19.6h0l1.5-4.3h0l10.6-31.3h0l3.2-9.7,3.7-9.5h0l4.8.5h0l-11.2,34.5-11.2,34.6h0l-8,22.7h0l-13.7,37.7h0l-1.6.6h0Z"/>
      <path id="path2750" class="cls-1" d="M555,687.7h0l-38.7-107.1h0l-5.4-14.9h0l-.5-2.7-1-2.2h0l-.6-1.6h0l.6-1,1-.5h2.7l3.2,7.4,3.1,8,5.3,15.5h0l20.2,55.1h0l6.4,18.6,6.3,19.1h0l31.4-11.7h0l6.4-2.7,6.4-2.7.6-.5h0l-5.9-13.4h0l-19.1-49.3-19.1-49.4,3.1-1.5,2.7.5h0l31.8,82.8h0l4.2,11.7,4.3,12.2h0l2.7,4.7.9,3.2v1l-.5,1h0l-3.2,1.1-3.2,1h0l-14.2,5.8h0l-31.9,12.2h0Z"/>
      <path id="path2752" class="cls-1" d="M593.2,529.6h0l-5.2,3.1-4.8,2.7-4.2,2.1h0l-10.1,3.1-10,2.7-10.6,2.1-10.6,1.6h0l-10.1,1.6-10.6.6h-16.4l-11.7.5h-9.6l-5.3-.5h0l-9.6-1.1h0l-5.3-.6-5.9-1h0l-11.7-2.2-11.2-2.6h0l-8.4-2.2-11.2-4.2-10.6-4.3-4.2-2.2-2.7-2.1h0l-.6-.5h0l-3.7-5.9h0l-.5-4.3-.6-2.6.6-2.2h0l1.5-3.2,2.1-2.6,3.2-2.7,3.7-2.7,7.4-3.7,7-2.7h0l15.4-5.3,15.5-4.3,14.8-2.6,15.4-1.6,14.9-.6,15.5.6,15.4,1.6,15.9,2.6h0l6.9,1.1,6.4,1.6,12.7,3.7h0l4.3,1,4.2,1.5h0l4.3,2.2h0l9.1,3.7,4.3,2.1,3.7,3.2h0l4.7,4.2,2.7,5.4h0v2.1h0v3.7l-.6,2.2-.5,1.5h0l-2.1,3.2-2.7,2.7h0Z"/>
      <path id="path2754" class="cls-1" d="M492.4,266h0l-4.3,7.4-5.3,6.4-4.8,5.9-4.2,4.2v160.3h0l11.1-.6h17.5l10.6.6-1-160.3h0l-9.6-10.6-4.7-5.8-5.3-7.4h0ZM603.9,489.8h0l-4.3-3.1-4.7-2.7-9.7-4.7h0l-10-5.3h0l-5.9-2.2-5.8-1.5h0l-14.3-3.8-14.4-3.1-14.2-2.2-14.4-1-14.9-.6-14.3.6-14.3,1.5-14.9,2.2h0l-8,1.6-7.9,2.1-15.5,5.3h0l-6.9,2.7-6.4,2.7h0l-9,4.2-8.5,4.8h0l-.5-2.7-.6-2.6h0l6.8-4.8,7-4.3h0l10.6-5.3,11.7-4.7,12.2-4.3,11.2-2.7h0l11.6-2.7,12.2-2.1h0l.6-100.3h0l-10.6,6.9-11.8,6.9-12.7,6.9-13.8,6.3-14.2,6.4-14.9,5.8-15.9,4.7-16.5,4.4h0l-8,2.1-3.7.5-4.3.6-5.8-6.9h0l17.4-4.3,17-4.3h0l10.1-3.1,9.6-3.1,8.9-3.8,9.7-3.7,9-4.3,9-4.2,9.1-4.8,8.4-4.8h0l12.7-9,10.6-7.9v-43h0l-9,7.5-8,6.4-8,5.3h0l-10,5.8h0l-18.1,10.1-9,4.7-9,3.7h0l-11.2,4.3h0l-11.7,4.3h0l-9,3.1h0l-9.6,2.7h0l-14.9,3.1h0l-11.7,2.7-11.1,2.7-11.8,1.5-12.1,1.1h0l-10.7-6.4h0l12.2-2.2,13.8-1h0l8-1.5,8-1.7h0l9.6-1.5,13.2-3.2,15.5-4.3,15.4-4.7h0l10.7-4.3,9.5-4.2,9.6-4.3,8.5-4.3,8.4-4.8,8-4.7,8-5.3,8-5.8h0l6.4-5.3,5.9-4.8h0l2.7-2.1,2.1-3.2h0l13.8-14.8,6.4-8,5.9-9.1h.5l5.3,7.5,5.3,6.9,5.9,6.9,5.9,6.3,6.4,5.9,6.9,5.8,13.7,11.2h0l9.1,6.4,9.5,6.3h0l11.2,5.9h0l11.1,5.8h0l7.4,3.2h0l13.4,5.9h0l8.4,3.2h0l6.9,2.6,6.8,2.7h0l9.1,2.6h0l15.9,4.3,15.9,4.3h0l23.3,4.7h0l-1.6,2.1-2.1,1.7-3.7,3.1h0l-8.5-.5-7.9-1.1-15.9-4.3h0l-22.4-6.4-11.2-3.7-10.5-3.7-10.6-4.2-10.7-4.8-10.6-5.3-10-5.8h0l-8.4-5.4h0l-9.7-6.4-9.5-6.8h0l-9.6-7.5-8.5-8.4h-1v25.4h0v9.1l.6,4.7v4.7h0l15.9,11.2,15.4,9.5,15.5,9.1,15.9,7.4,16.4,6.8,17.6,6.4,17.9,5.3,19.7,5.9v.5h0l-5.9,5.8h0l-13.3-2.1-13.3-2.7-12.7-3.7-11.7-4.7-11.7-4.8-10.7-4.7-9.5-5.3-9.1-5.3-15.4-10.1-11.7-7.4-6.9-4.7-2.2-.6h-.5v.6h0v50.9l.5,50.4h0l10.7,1.5,10,1.6h0l9,2.2,8.5,2.1h0l10.1,3.1,10,4.3,9.7,4.8,9.5,5.3h0l4.3,3.7,3.7,3.2h0l.6,3.2-.6,3.1-.5.5Z"/>
      <path id="path2756" class="cls-1" d="M649.5,383.8h0l-2.1.6h-1.6l-2.1-.6-1.6-1.6h0l-1.1-2.1-.5-2.2.5-2.1,1.1-2.1h0l1.6-.6,1.5-.5h1.6l1.6.5,1,.6,1.6,1,.6,1,.5,1.6h0v3.7l-1,1-1.6,1.6h0Z"/>
      <path id="path2758" class="cls-1" d="M331.6,383.2h0l-2.1-1-1.6-2.1-.6-2.7.6-2.1h0l.5-1.1,1.1-1,2.1-1h2.7l2.2,1h0l1,1,1,1.6v3.8h0l-1.6,2.6-1.6,1h-3.7Z"/>
      <path id="path2760" class="cls-1" d="M620.9,376.8h0l-2.2-1-1-1.6-1-2.1.5-2.2h0l1-2.1,2.2-1h2.7l2,1h0l1,1,1.1,1.6v2.2l-.6,1.5h0l-1,1.6-1,.6-1.5.5h-2.2Z"/>
      <path id="path2762" class="cls-1" d="M367.1,372.7h0l-1,1-1.6.5h-3.7l-2.1-1-1-1-.6-1.6v-2.1h0l.6-2.2,2.1-1.5,2.1-1,2.1.5h0l1.7.6.5.5,1.6,2.2.6,2.6-.6,1.7-.6,1h0Z"/>
      <path id="path2764" class="cls-1" d="M595.4,366.8h0l-2.2-.6-1-1.5-1-1.7v-2.1h0l1-1.6,1.6-1h3.7l2.2.6,1,1,1,1.6v1.5h0l-.6,2.2-1.5,1.6-2.2.6-2.1-.6h0Z"/>
      <path id="path2766" class="cls-1" d="M386.7,365.2h0l-1-.5-1-1-1.1-1.1-.5-1h0v-1l.5-1.6,1.1-2.1,2.1-1.1,1.7-.6,1,.6h0l2,1.1,1.7,1.5.5,2.2v1l-.5,1.5h0l-1.1,1.1-1.5,1h-3.8Z"/>
      <path id="path2768" class="cls-1" d="M574.6,355.6h0l-1,.6h-1.5l-2.7-.6-2-1-.6-1-.6-1h0v-2.2l.6-1.5,1-1.6,1.5-1.1h0l2.2-.5,2.7.5,1.6,1.1,1.5,2.1h0v1.6l-.5,1.6-.5,1.5-1.7,1.6h0Z"/>
      <path id="path2770" class="cls-1" d="M418.6,351.9h0l-.5,1.1-1.6.9-1.6.6h-1.5l-1.7-.6-1.5-.5-1-1-1-1.6h0v-1.6l1-2.1,1.5-1.6,1.6-1h3.8l1,.6,1,.9.5,1.6.6,1.6v1l-.6,1.6h0Z"/>
      <path id="path2772" class="cls-1" d="M441,340.8h0l-2.2,1h-1.5l-2.2-.6-1.6-1h0l-.5-1v-1.6l.5-2.7,2.1-1.6,1.1-1h2.7l1.6.6,1,.5.5,1h0l.6,2.2v1.6l-1,1.6-1,1h0Z"/>
      <path id="path2774" class="cls-1" d="M545.5,340.2h0l-2.1-.5-2.2-1.1-1-2.1-.6-2.2h0l.6-2.1,1.5-1.6,1.7-1h2.6l2.2.6,1.5,1.6,1.1,2.1v2.2h0l-.6,1.5-1.6,1.6-1,.6-2.1.5h0Z"/>
      <path id="path2776" class="cls-1" d="M634.6,311.1h0l-8-1.5-7.4-2.2-8-2.7-7.4-2.7-7.5-3.2-7.4-3.7-7.5-4.3-7.4-4.2-13.7-9.6-12.8-10-11.7-10.7-10.1-11.1h0l7.5-6.8,5.8-7.5,4.8-6.9,4.3-6.9h0l7.4,14.4,7.4,13.2,8.5,12.3,4.8,5.8,4.7,5.9,5.3,5.8,5.8,5.3,5.9,5.3,6.4,5.3,6.9,5.3,7.4,5.3,15.9,10h0Z"/>
      <path id="path2778" class="cls-3" d="M305,646.9l-13.3-37.6-39.2,6.9,25.5-30.2-25.5-30.3,39.2,6.9,13.3-37.6,13.8,37.6,39.2-6.9-25.4,30.3,25.4,30.2-39.2-6.9-13.8,37.6Z"/>
      <path id="path2780" class="cls-3" d="M681.8,646.9l-13.7-37.6-38.8,6.9,25.5-30.2-25.5-30.3,38.8,6.9,13.7-37.6,13.8,37.6,39.3-6.9-26.1,30.3,26.1,30.2-39.3-6.9-13.8,37.6Z"/>
    </g>
  </g>
</svg>