<?xml version="1.0" encoding="UTF-8"?>
<svg xmlns="http://www.w3.org/2000/svg" version="1.1" viewBox="0 0 971.6 971.6">
  <defs>
    <style>
      .cls-1 {
        fill: #1d1d1b;
      }

      .cls-2 {
        fill: #fff;
      }
    </style>
  </defs>
  <!-- Generator: Adobe Illustrator 28.7.1, SVG Export Plug-In . SVG Version: 1.2.0 Build 142)  -->
  <g>
    <g id="Ebene_1">
      <rect class="cls-2" x="-.8" y="-2.3" width="971.3" height="973"/>
      <path class="cls-1" d="M891.3,325.6c-6-21.2-46.7-61.6-59.8-74.8-13-13.2-28.3-16.3-31.3-16.7-3.1-.4-8.5-4.9-13-7.8-4.5-2.9-6.7-9.4-10.5-12-3.8-2.5-21-.7-22.3-.9-1.3-.2-8.3-15.4-9.1-17-.7-1.6-.2-4.3-2.2-9.8-2-5.4-6.9-12.1-16.8-16.1-10-4-22.5-.9-23.7.4-1.3,1.3-6.9,3.4-6.9,3.4l-9.8.4,1.3,4c-3.6,1.1-11.1,13.6-12.7,16.5-1.6,2.9-1.8,16.3-1.8,16.3l2.5,1.3s-.2,2.5,1.1,9.4c1.3,6.9,5.1,5.8,5.8,7.2.7,1.4,1.4,9.1.7,12-.7,2.9-9.4,4-9.8,5.4-.4,1.4-5.8,6.9-10.1,13-4.3,6.2-16.3,32.8-22.5,34.6-3,.8-3.3-2.1-4.7-3.8-1.4-1.6-9.8,4.2-17.2,9.2-7.4,5.1-26.4,21.4-35.3,34.1-7.9,11.4-15.8,24.6-13.4,35.9,1.2,5.6,8,10,19.9,14.9,12,4.9,17.6,4,22.3,2.5,4.7-1.4,11.8-2.4,15.6-1.4,3.8.9,11.4,8.5,13.9,9.4,2.5.9,9.4-.2,15-.5,5.6-.4,10.1-4.5,12.5-6,2.4-1.4,4.3,0,4.3,1.4s-8,34.8-8.3,47.3c-.4,12.5,4.9,17.2,5.8,19.4.9,2.2-.9,3.4-2.7,4.7-1.8,1.3.7,6.3.7,6.3,0,0-2.9,5.6-4.3,26.3-1.4,20.7,5.1,27.5,12.7,38.2,7.6,10.7,32.8,48.4,33,52.7.2,4.3-6.2,13.6-10.5,19s-34.2,44.2-41.5,54.9c-7.2,10.7-3.3,16.1,0,21,3.3,4.9,3.8,6.9,4.5,9.2.7,2.4,9.6,13.2,9.1,14.9-.5,1.6-7.2,16.3-3.6,24.6,3.6,8.3,11.1,10.7,15.9,11.1,4.9.4,9.6-5.3,10.9-6,1.3-.7,3.3.5,3.1,1.8-.2,1.3-1.3,13.6-1.1,25,.2,11.4,11.2,13.9,16.5,14.5,5.3.5,38,2.2,49.1,1.8,11.1-.4,9.4-7.1,8.9-10.5-.5-3.4-8.7-4.2-11.2-6-2.5-1.8-2.5-8.3,0-14.9,2.5-6.5,14.1-28.4,15.8-35.1,1.6-6.7,6.2-17.6,9.4-25.2,3.3-7.6,4.3-14.5,5.1-17.9.7-3.4,17.6-21.7,23.2-28.3,5.6-6.5,8.9-18.5,11.4-26.3,2.5-7.8-1.1-40.6-2.7-50.4-1.6-9.8.7-49.1.4-64.1-.4-15-1.8-45.8.5-52,2.4-6.2,5.4-16.3,3.1-36.1-2.4-19.7-.7-59.6,1.3-63,2-3.4,4.9.7,7.4,5.4,2.5,4.7,7.4,13.2,4,15.8-3.4,2.5-.5,8.9-2.9,10.5-2.4,1.6-3.1,6-3.1,7.2s-2.7,2.5-4.2,4.2c-1.4,1.6,1.8,20.7,2,23.9.2,3.3,10.1,6,13.9,7.6,3.8,1.6,5.6-1.6,8.2-2.2,2.5-.5,5.1-.2,9.8.9,4.7,1.1,8,2.4,8.3.9s-.9-3.3-2.4-4.7c-1.4-1.4.4-2.4.4-2.4,8.2-3.8,19.9-20.7,20.3-24.5.4-3.8,5.1-7.4,6.7-14.5,1.6-7.1,1.3-28.6-4.7-49.8ZM679.1,351.9c-1.1,5.8-6.9,25.4-8.3,28.5-1.4,3.1-4.1,7.6-14.9,8-10.9.4-18.1-.1-23-4.2-4.9-4.1-6.1-5.4-4.6-10.7,1.5-5.3,2.6-10.6-.1-8.2-2.7,2.4-6,10.7-9.5,12.1-3.5,1.4-18.6,5.2-27,2.7-8.4-2.4-17.7-10.5-14.4-22.6,3.3-12.1,28.4-38.9,31.9-42,3.5-3.1,19.3-16.3,21.7-17.3,2.4-1,8.3-2.7,6.8,2.3-1.5,5-5.8,6.7-9.6,7.2-3.8.5-8,4.8-3.4,9.9,2.1,2.3,14.9,15.5,15.1,19.2.1,3.7-1.5,8.8.3,9.5,1.8.7,13.7-2.2,18.3-2,4.6.1,8.3,1.4,12.9,1.6,4.6.3,9,0,7.9,5.8Z"/>
      <path class="cls-1" d="M554.8,331.5c3.4-2,12.5-8.8,15-10.4,2.5-1.6,6.6-1.1,9.6,1.4,3,2.4,3.8,8.2-.2,14.1-4,5.9-11.3,16.9-12.7,22.5-1.4,5.5-1,16.8,2.5,19.8,3.5,3,8.2,7.5,13.1,7.3s10,.8,10.1,5.1c.2,4.3-2.6,8.1-9.7,8.2-7.1,0-13.4-1.5-18.1,1.8s-20.4,17.2-23.4,19.3c-3,2.1-4.8,5.4-8.2,9.4-3.4,4-7,3.3-10.1,5.3-3.2,2.1-9.1,9.2-9.4,13.3-.3,4.1-.4,10.6-3.9,16.4-3.5,5.8-9.8,15.6-10.2,16.7-.5,1.1-1.4,2,1.9,2.6,3.4.6,8.1.2,10.6,4.6,2.5,4.4,9.8,16.5,12,20.7,2.2,4.2,3.1,12.8-.2,16.2-3.3,3.4.7,5.6,1.5,7.2.8,1.6,2.4,10.5-3.4,13.5-5.8,3-7.1,3.1-12.4,8.8-5.3,5.7-9.5,9.9-17.2,6-7.7-3.9-10.9-4.9-9.4-10.5,1.4-5.6,11.1-7.7,13.7-8,2.6-.3,4.3-.4,4.7-2.2.5-2.2-2.9-4.5-6.1-5.4,0,0-12.1-3.1-20.5-11.3,0,0-4.5-5.3-7-4.3-2.4,1.1-12,12.3-20.7,16.2-8.7,3.9-34.1,12.9-42.1,14.2-8,1.4-30.8,3.4-37.6,5-6.8,1.6-36.8,11.6-43.8,21.2-7,9.6-13.9,18.4-14.6,23.6-.7,5.3-9.6,16-12,19.1-2.4,3.1-12.8,20.6-38.7,33.4-25.9,12.9-37.5,13.3-50.3,22-12.8,8.7-30,20.1-32.4,22.2-2.4,2.1-6,6.3-3.6,7.5,2.4,1.2,5,.2,5.6,1.7.7,1.5,3.1,1.8,2.9,3.8s-.7,5.8-7.2,5.8-15.2,1.3-17.9-2-3.3-12.9.7-18.3c4-5.4,21.7-20,22.8-21.3s2.1-3.3-.6-2.6-8.2,2.9-25.8,15.6c-17.7,12.7-17.7,12.1-19.6,13.3-1.8,1.2-2.6,3.5-1.2,3.9s3.9.3,4.2,1.5,2.2.5,1.7,3.9c-.5,3.4-4.3,6.4-12.5,5.9-8.2-.5-10.2-3.9-10.7-8.5-.5-4.6,7.7-13.7,15.6-19.5,7.9-5.8,19-17.5,20-19.3s8.2-10.5,15.2-12.5c7-2,13.6-9.7,14.9-11.7,1.3-2,10.4-17.7,11.5-21.3,1.1-3.6,3-9.7,2.6-12.8-.2-1.9,0-7-5.3-5.1-5.3,1.9-33.4,8.7-48.1,5.7-14.7-3-51.6-20.4-50.5-50.5,0,0,14.9,17.4,27.7,25.3,12.8,7.9,37.2,9,50.8,4.3s21.7-8.4,26.1-10.1,10.9-10.3,16-13c5.2-2.7,18.2-14.7,29.3-22.3,11.1-7.6,96.2-61.7,102.4-65.5s50.5-41.8,54.1-47.6c3.5-5.7,12-19.6,29.9-29.9,17.9-10.3,44-24.7,51.4-27.4s7.6-3.8,11.4-7.1c3.8-3.3,15.2-12.8,15.8-13.9s2-16.2,2-18.4.5-4.5,1.3-3.9c.8.6,4.7,11.8,5.1,12s3.6,0,3.9-.4,9.5-9.5,17.4-10.1c7.9-.5,13.7,2.9,20-.7Z"/>
    </g>
  </g>
</svg>