<?xml version="1.0" encoding="UTF-8"?>
<svg xmlns="http://www.w3.org/2000/svg" version="1.1" viewBox="0 0 971.6 971.6">
  <defs>
    <style>
      .cls-1 {
        fill: #1d1d1b;
      }

      .cls-2 {
        fill: #fff;
      }
    </style>
  </defs>
  <!-- Generator: Adobe Illustrator 28.7.1, SVG Export Plug-In . SVG Version: 1.2.0 Build 142)  -->
  <g>
    <g id="Ebene_1">
      <rect class="cls-2" x="-.8" y="-2.3" width="971.3" height="973"/>
      <path class="cls-1" d="M878.5,667c-5.7-5.5-13-16-23.3-28.8-10.3-12.8-38.5-39.6-45.2-40.6-6.7-1-8.9-4.5-25.8-23.3-16.8-18.9-28.2-60.2-31-81.7-2.8-21.5-15.6-47.9-25.2-57.8-9.5-9.9-12.2-19.5-11.4-25.6.8-6.1,21.7,2.8,38.1,6.7,16.4,3.9,57.8.6,83-17.4,25.2-18.1,43.4-56.8,46-77.3,2.6-20.5-6.3-10.1-10.1-5.3-3.9,4.9-20.3,31.6-40.8,47.9-20.6,16.2-55.2,16.2-76.3,11.9-21.1-4.3-71.4-9.7-86.5-9.7s-23.8-3.2-57.3-9.2c-33.5-6-60.6,2.7-97.4,11.4-18.9,4.4-43.2,10.6-67.6,16l427.1-160.7h-18.4l-447.9,168.3c-9.3,1.5-18.2,2.7-26.2,3.4-38.9,3.2-38.8,4.7-65.5,11.9-30,8.1-38.9,29.5-41.4,34.3-2.4,4.9-11.6,18.4-17.9,21.9s-26.5,24.9-33.3,33.5c-6.8,8.7-33,30.6-35.7,34.3-2.7,3.8-14.8-.5-16.4-5.3-1.5-4.5-5.8-19.6-8.2-17.4s-1.6,26.8-3.8,30.8-15.4-2.7-23.3-11.9c-7.8-9.2-6.2-8.1-9.2-3.8-3,4.3-.1,53.5-.3,56.2-.2,2.6-7.1,7.5-15.4,21.9-8.3,14.4-8.9,26-6.9,29.4,2,3.4,3,11.8,1.8,16.8-1.2,5.1-.8,11.6-4.9,23.7-3,9.1-11.4,17.9-8.1,22.7,2.7,4,3.1,9.7,3.9,11.1.8,1.4,5.9,10.7,24.5,10,14.6-.5,27.8-13.6,36.5-20.7,8.7-7.1,16.6-11.4,24.3-15.4s14.6-9.7,21.5-13c6.9-3.2,23.7-26.4,32.9-34.9,9.1-8.5,84.4-40.8,94.3-44.2,9.9-3.4,9.9,9.1,8.9,18.3-1,9.1-11.2,43.6-14.4,53.8-3.2,10.1-22.9,41.4-29.2,42.6-6.3,1.2-20.5.6-23.5,10.1-3,9.5,12.8,9.7,30.2,8.7,17.4-1,23.5-13.4,24.7-16.4,1.2-3,7.7-6.1,18.1-16.4,10.3-10.3,12.8-19.5,17.4-23.9,4.7-4.5,3.2-12,5.9-17.4,2.6-5.5,20.5-40.6,25.6-47.1,5.1-6.5,15-6.1,30.6-5.1,15.6,1,35.3-9.5,43.6-12.4,8.3-2.8,9.7,15.4,8.3,25.6-1.4,10.1,5.5,21.1,20.5,40.4,15,19.3,43.2,18.3,50.3,18.3s18.1,7.9,18.5,14.4,4.9,9.1,11.2,8.3c6.3-.8,6.5-6.1,8.9-8.9,2.4-2.8,3.4.4,11.2,2.4,7.7,2,25.2-1.6,30.8-4.1,5.7-2.4,18.9-28,26.4-40.4,7.5-12.4,28-38.7,30.6-46.2,2.6-7.5-3.4-12.4-9.9-18.3-6.5-5.9-16-14-17.9-20.3-1.8-6.3-6.1-13.8-4.3-18.1,1.8-4.3,19.9,5.7,25.2,10.8,5.3,5.1,38.7,26.2,54.4,36.3,15.6,10.1,69.6,54.8,89.7,67.8,20.1,13,38.5,29.6,41.4,38.1,2.8,8.5-5.5,7.9-8.5,13.6-3,5.7,6.1,8.7,17.2,9.5,11.2.8,8.7-5.5,14-8.1s5.3-6.5,6.5-15.6c1.2-9.1-9.9-15-15.6-20.5ZM641.5,614.9c-7.7,13-16.6,30.8-19.1,35.7-2.4,4.9-15.6,15.8-18,16.4-2.4.5-2.7-3.5-5.4-2.7-2.7.8-8.4,5.7-8.4,5.7,0,0-2.7-11.1-11.6-16-8.9-4.9-39.8-14.3-45.7-17.3-5.9-3-6.2-2.7-7-13.5-.8-10.8-4.6-42.2-6.8-54.4-2.2-12.2-8.9-23.5,3.5-37.1,12.4-13.5,31.2-1.2,31.2-1.2,11,6.5,30.4,15,38.9,22.7,8.5,7.7,21.9,19.1,28,18.7s14.6.4,19.1,16.2c4.5,15.8,8.9,13.8,1.2,26.8Z"/>
    </g>
  </g>
</svg>