<?xml version="1.0" encoding="UTF-8"?>
<svg xmlns="http://www.w3.org/2000/svg" version="1.1" viewBox="0 0 971.6 971.6">
  <defs>
    <style>
      .cls-1 {
        fill: #1d1d1b;
        fill-rule: evenodd;
      }

      .cls-2 {
        fill: #fff;
      }
    </style>
  </defs>
  <!-- Generator: Adobe Illustrator 28.7.1, SVG Export Plug-In . SVG Version: 1.2.0 Build 142)  -->
  <g>
    <g id="Ebene_1">
      <rect class="cls-2" x="-.8" y="-2.3" width="971.3" height="973"/>
      <path class="cls-1" d="M688,665.3c3-4.8,6.5-9,8.4-11.5,4.1-5.3,3.4-25.2.5-30.8-2.9-5.5-19.5-18-31.2-33.4-11.8-15.4-.2-32.2,5.3-40.6,5.5-8.4,11.5-46.6,13.2-50.7,1.7-4.1,8.7-6.5,14.4-7.2s11.1-8.4,14.2-10.8c3.1-2.4,3.1,1.2,1.9,5.3-1.2,4.1,6.5,6,13.9,7.2,7.4,1.2,16.8-3.4,18.5-6,1.7-2.6-1.4-6-3.6-10.1-2.2-4.1,5-8.9,7.4-10.6,2.4-1.7,6.5-.2,3.8,2.6-2.6,2.9-4.1,6.2,0,14.2,4.1,7.9,13.7,12.7,23.3,13.5,9.6.7,19.7-2.6,31.5-11.5,11.8-8.9,16.8-22.6,17.8-28.4,1-5.8-5-23.3-8.4-35.3-3.4-12-14.9-13.5-22.8-13.2-7.9.2-23.1,4.3-30.3,8.7-7.2,4.3-11.3,1.7-15.6-4.1-4.3-5.8.5-20.2,2.4-27.9,1.9-7.7,0-11.1-1.4-14.9-1.4-3.8-2.2-15.4-1.2-19.2,1-3.8,3.8-8.2,1.2-11.1-22.8-24.8-15.4-28.8-41.8-25-7.4,1.1-19.2-1-22.1-3.4-2.9-2.4-1.7-1.4-10.1-9.3-6.5-6.1-16-11-18.4-11.7-5.8-1.8-16.2-8.5-26-1.1-9,6.8,7.8-1.4,12.6,20.7,2.3,10.4-32.7,47.1-47.1,58.6-14.4,11.5-24.5,17.3-75.9,30.3-51.4,13-88.4,0-118.7-19.2-30.3-19.2-40.9-78.3-43.3-100.5,0,0-1-43.7,2.9-58.2,3.8-14.4-4.3-9.6-12-1.9-7.7,7.7-16.3,42.8-18.3,69.7-1.9,26.9,18.7,88.9,22.1,94.7s7.7,17.3-.5,19.7c-8.2,2.4-14.9-2.4-27.4,1.4-12.5,3.8-15.9,6.7-27.4,5.3s-22.1-17.3-30.8-19.7c-8.7-2.4-17.3,5.3-23.1,4.8-5.8-.5-17.3-7.2-24-11.1-6.7-3.8-18.7-2.9-22.1,3.4-3.4,6.2,6.7,19.2,19.7,20.7,13,1.4,13.9,8.7,11.1,13s-18.3,8.7-24.5,14.9-12.5,6.7-25,4.8c-12.5-1.9-18.7,7.2-21.1,13.5-2.4,6.2,20.7,16.8,28.8,16.8s26.4-12.5,38.9-14.9c12.5-2.4,20.7,10.1,23.6,19.7,2.9,9.6,16.3,20.2,38,37,21.6,16.8,47.6,0,69.2-2.4,21.6-2.4,29.3,15.9,43.7,28.4,14.4,12.5,52.4,37,65.8,44.7,13.5,7.7,60.6,16.3,96.6,23.1,36,6.7,53.8,48.5,68.3,56.7,1.2.7,2.3,1.5,3.4,2.3l7.5,8.7c5.6,9.3,7.1,20.4,5.5,24.3-2.4,5.8-1.4,15.4,2.4,21.1,3.8,5.8,2.4,13.2,8.9,14.7s11.3-2.2,13-6.5c1.7-4.3,1.9-6.5,9.6-7.9,7.7-1.4,7.5-2.9,7.2-11.1-.2-8.2-4.8-15.6-7.2-26-.6-2.8-.3-5.7.7-8.7l4.1-8.7ZM714.2,471c-5.5,6.2-11.1,14.7-29.1,15.4-18,.7-28.6,2.9-35.1-10.1-6.5-13-13-42.3-6.2-50.5,6.7-8.2,14.2-16.8,28.4-18.5,11-1.3,31-1.2,36.8,6.7,5.8,7.9,7.9,15.4,7.7,30.8s3.1,19.9-2.4,26.2ZM820.7,458.7c-2.4,8.2-10.8,21.4-20.2,26.2-9.4,4.8-17.3,6.7-26.4,4.3-9.1-2.4-16.3-8.2-17.1-12.5-.7-4.3,1.9-5.5,8.9-10.3,7-4.8,10.5-11.7,11.5-19.7.7-5.8-4.1-12.3-9.4-17.1-5.3-4.8-5-8.2,8.4-13.2,0,0,15.9-6.2,22.3-5,6.5,1.2,9.4-.2,15.9,16.1,6.5,16.3,8.4,23.1,6,31.2Z"/>
    </g>
  </g>
</svg>