<?xml version="1.0" encoding="UTF-8"?>
<svg xmlns="http://www.w3.org/2000/svg" version="1.1" viewBox="0 0 4526 647.3">
  <defs>
    <style>
      .cls-1, .cls-2 {
        fill-rule: evenodd;
      }

      .cls-1, .cls-3 {
        fill: #fff;
      }

      .cls-2, .cls-4 {
        fill: #1d1d1b;
      }
    </style>
  </defs>
  <!-- Generator: Adobe Illustrator 28.7.1, SVG Export Plug-In . SVG Version: 1.2.0 Build 142)  -->
  <g>
    <g id="Ebene_1">
      <g id="Ebene_1-2" data-name="Ebene_1">
        <g id="Ebene_1-2">
          <g>
            <path class="cls-2" d="M2441.7,212.1l-3.8-.8-4.1-.4-4.1-.4-13.7-1.2-2-.4-3.8-.8-6.6-2.1-10.7-3.3-3.7-1.8-6.6-2.8-1.7-.9-3.8-1.7-8.3-5-8.3-5.4-4.5-4.1-9.5-7.5-5-4.6-5.4-5.8-5-5.9-3.7-5.8-5.5-8.2-4.5-8.4-.4-1.1-1.7-3.7-1.6-4.1c7.2-2.6,12.3-9.4,12.3-17.6s-8.5-18.8-18.8-18.8-18.8,8.5-18.8,18.8,3.8,13,9.3,16.2v.4l-2.5,5.4-3.3,5-3.4,4.6-4.1,4.5-3.8-5-3.7-5.4-6.3-10.7.5-.5c6.3-3.5,10.6-10.2,10.6-17.9,0-11.5-9.3-20.6-20.6-20.6s-20.6,9.3-20.6,20.6,2.8,11.7,7.2,15.6l-.6,2.2-.8,2.5-3.3,7.5-4.2,7-4.5,7.5-4.5,7-2.1,2.1-4.1,4.6-3.8,4.1-3.7,3.3-4.6,4.1-5,4.1-5,3.8-5.4,3.3-5.4,3.3-5.4,2.9-11.1,5.4-6.3,2.1-5.9,2.1-8.3,2.1-9.2,2.5-6.6,1.3-6.6,1.1-6.6.8-6.3,1.2-8.3.4-16.2,1.7-5,.4h-2.1l-2,.4-1.8.8-1.7,1.3-1.8,1.7-1.1,2.5-.4,3v2.9l.4,2.5.4,1.6.8,1.2,1.2,2.5,1.7,1.8,1.3,1.6,1.6,1.3,3.8,2.5,5.8,3.8,5.9,3.3,10,6.3,9.2,6.6,9.2,7,3.8,4.1,2.5,2.1,3.8,5,5.8,7.5,5,7.8,4.5,7.9,4.1,8.2,2.1,5.4,2.5,5.4,3.3,10.4,3.3,10.4.4,2.5.4,2.5.9,1.7,1.7,12.5.4,3.7.4,3.7.8,2.5,1.6,2,1.3,1.8,1.1.8,2.1,1.8,2,1.1,4.6,2.1,4.6,2.1,9.5,3.7-.4,3.3-2.5,6.6-2.5,6.6-10,26.2-11.3,29.9-5,12.9-2.4,7-1.8,3.3-2.1,3.3-7.5,14.2-2.9,6.6-9.2,19.8v.8l3.3,1.2.8-.4,1.3-3.8,1.7-3.3,6.6-13.7,5.3-10.3,4.2-7.9h.8l1.6.8-2.8,5.4-5.9,14.5-8.3,19.5v1.2l2.1.8,2.1.4,11.3-25.7,4.5-10,.9-2.5,1.1-2.5h1.1l.9.8-7.5,20.4-7.8,19.9.4,1.2,2.9,1.2.8-.4,6.6-18.8,8.7-21.5,4.1.8v1.1l-5.3,14.5-6.3,16.6-1.8,4.6-1.8,4.5,3.8,1.2.4-.4,7.4-19.8,7.5-20.4h1.2l2.9,1.1-.4,2.1-6.6,19.4-6.6,19.5,4.1,1.2.8-3.7,1.3-3.3,2.4-7.8,5-14.2,4.5-11.1h1.3l.7.4,1.8.8-7.9,24.8-5,15.7,4.2,1.2,4.9-16.2,4.6-13.7,3.7-10h1.8v1.2l-5.4,20.4-5,19.9,4.1.7,2.1-8.6,2.5-9.1,6.3-22,3.8,1.1v1.8l-5,19.5-5,19,4.6,1.2,3-12.4,3.3-12.2,2.5-10,.8-3.3,1.2-3,2.1-4.5,1.1-5,1.8-3,30.7-94.1,2-5h5.9l27,73.7,6.3,18.3,2.9,7,2,7.1,1.8,7,3,10.7,2,8.7,5.4,24.1,4.6-1.3.4-.8-2.5-7.8-2.1-7.8-3.3-14.5-3.3-14.4,2.5-1.3.8.4,5.8,22.5,6.3,21.9,2.5-.9,1.2-.4.8-.8v-1.2l-1.2-4.6-2.1-6.6-9.2-31.1-.4-1.1,2.5-.9,7.9,21.9,7.8,21.6,2.1-.4,1.7-.4.4-1.2-10-27.8-3-7.5-1.7-4.1-.8-4.1,1.7-.9,2.1-.4h.8l3.3,7.9,2.9,8.2,9.2,27.4,4.6-1.2v-1.2l-7.5-20.6-7.8-22v-.9l2.1-.4,2.1-.4.8,2.1,1.2,4.1,2.9,6.3,7,17.8,2.5,6.6,2,6.3,4.2-1.2-16.6-44,1.2-.4,1.1-.8.4.4,5,10.5,4.1,10,9.2,21.9h.9l1.1-.4,2.1-1.2-6.6-15.4-6.6-14.9-4.5-11.3v-1.2l1.1-.4h1.8l8.6,19.6,5,10.7,2.5,5.4,2.1,5.4.4.4,3.3-1.8v-.8l-17.5-39.8v-1.2l1.3-.4,1.6-.4,7.9,15.9,2.1,3.3,10,20.6,2-.4,1.8-.8.4-1.1-11.6-23.3-5.8-11.6-5.9-11.5v-.9l-1.1-1.7-3.3-8.3-3.3-8.7-11.6-30.7-10-26.5-2.9-6.6-2.1-7.1,4.1-1.1,4.5-1.8,5.9-3.3,2.5-1.7,2-2.1,2.5-2.9,2.1-2.9,1.8-3.3.8-3.7,1.1-7.6,2.1-11.5,1.1-5.3,1.8-5.9,2-5.8,2.1-5.9,2.9-5.8,2.9-5.8,6.6-10.7,7-10.4,3.3-5,4.1-4.5,7-8.3,7.8-7.9,7.9-7.4,4.5-4.1,4.1-4.2,3-2,2.9-1.8,3.7-2.9,3.7-2.5,7.1-4.1,3.3-2.5,3-3,1.2-2,1.1-4.6-1.1-2.9-1.8-2.9-1.2-1.2-1.8-.9-2-.8-.2.3.3.2h1.2Z"/>
            <polygon class="cls-2" points="2142.2 414.9 2167.1 384.9 2128.5 391.7 2115.2 355.1 2102 391.7 2063.8 384.9 2088.7 414.9 2063.8 444.7 2102 438 2115.2 474.6 2128.5 438 2167.1 444.7 2142.2 414.9"/>
            <polygon class="cls-2" points="2409.7 355.1 2396.4 391.7 2358.3 384.9 2383.2 414.9 2358.3 444.7 2396.4 438 2409.7 474.6 2423 438 2461.2 444.7 2436.3 414.9 2461.2 384.9 2423 391.7 2409.7 355.1"/>
            <path class="cls-2" d="M2419,61.6h-391.7v293.9l.4,12.1.9,12.1,1.7,11.6,2.1,11.6,2.5,11.6,3.3,11.2,3.7,10.7,4.1,10.7,4.6,10.4,5.3,10,5.8,10,5.9,9.5,6.6,9.2,7,9.2,7.5,8.4,7.9,8.3,7.8,7.8,8.7,7,8.7,7,9.2,6.6,9.5,6.3,10,5.3,10.4,5.4,10.4,4.6,10.4,4.1,11.2,3.8,11.2,3.3,11.3,2.5,11.5,2.1,11.6,1.8,12.1.8,12.2.4,12.4-.4,11.6-.8,12.1-1.8,11.5-2.1,11.3-2.5,11.2-3.3,10.7-3.8,10.7-4.1,10.4-4.6,10.4-5.4,9.5-5.3,9.5-6.3,9.5-6.6,8.6-7,8.7-7,7.9-7.8,7.8-8.3,7.5-8.4,7.1-9.2,6.6-9.2,5.9-9.5,5.8-10,5-10,5-10.4,4.1-10.7,3.7-10.7,3-11.2,2.9-11.6,2.1-11.6,1.2-11.6,1.2-12.1V61.6h-79.2.5ZM2475.9,72h11.5v293.9l-.8,11.6-1.6,11.2-2.1,11.2-2.5,10.7-2.9,10.7-3.7,10.4-3.7,10.4-4.6,10-5,10-5.4,9.5-5.9,9.2-6.3,8.7-6.6,8.7-7,7.8-7.5,7.8-7.8,7.4-8.3,7.6-8.3,6.6-9.3,6.3-9.1,5.9-9.3,5.4-10,4.9-10,4.6-10,4.1-10.7,3.3-10.5,3.3-10.7,2.5-11.2,2.1-11.2,1.2-11.6.8-11.6.4-11.6-.4-11.2-.8-11.2-1.2-11.3-2.1-10.7-2.5-10.7-3.3-10.5-3.3-10.3-4.1-10-4.6-9.5-4.9-9.4-5.4-9.2-5.9-8.7-6.3-8.3-6.6-8.4-7.6-7.8-7.4-7.4-7.8-7.1-7.8-6.6-8.7-6.3-8.7-5.9-9.2-5.4-9.5-4.9-10-4.7-10-4.1-10.4-3.3-10.4-3.3-10.7-2.5-10.7-1.7-11.2-1.8-11.2-.8-11.6-.4-11.6V72h438.7Z"/>
          </g>
          <path id="path2748" class="cls-1" d="M2216.9,495.7h0l-8.6-3.3-9.3-3.3h0l-23.6-9.2h0l-.4-1.2h0l.8-2.1h0l2.5-5.8h0l5.4-14.5,21.1-54.7h0l6.3-14.4h0l1.3-.4,1.7.4h0v2.1h0l-8.3,21.6-8.3,21.9h0l-16.6,42.7h0v1.7h0l2.9,1.2,3.3,1.7,6.3,2.1h0l20.7,7.8h0l2.1.4h0l.4-1.2.4-1.8.4-2.9h0l11.3-32.7h0l5.4-15.3h0l1.1-3.3h0l8.3-24.5h0l2.5-7.6,2.9-7.4h0l3.8.4h0l-8.7,27-8.7,27h0l-6.3,17.7h0l-10.7,29.4h0l-1.2.4h0v.2h-.2Z"/>
          <path id="path2750" class="cls-1" d="M2310.6,494.4h0l-30.2-83.7h0l-4.2-11.6h0l-.4-2.1-.8-1.8h0l-.4-1.2h0l.4-.8.8-.4h2.1l2.5,5.8,2.5,6.3,4.1,12.2h0l15.8,43.1h0l5,14.5,4.9,14.9h0l24.6-9.2h0l5-2.1,5-2.1.4-.4h0l-4.6-10.5h0l-14.9-38.5-14.9-38.6,2.5-1.1,2.1.4h0l24.8,64.8h0l3.3,9.2,3.3,9.5h0l2.1,3.7.7,2.5v.8l-.4.8h0l-2.5.9-2.5.8h0l-11.1,4.5h0l-24.9,9.5h0v.3l-.4-.2.3-.2Z"/>
          <path id="path2752" class="cls-1" d="M2340.5,370.9h0l-4.1,2.5-3.8,2.1-3.3,1.7h0l-7.9,2.5-7.8,2.1-8.3,1.7-8.3,1.2h0l-7.9,1.2-8.3.4h-12.8l-9.2.4h-7.5l-4.1-.4h0l-7.5-.9h0l-4.1-.4-4.6-.8h0l-9.2-1.8-8.7-2h0l-6.6-1.8-8.7-3.3-8.3-3.3-3.3-1.8-2.1-1.7h0l-.4-.4h0l-2.9-4.6h0l-.4-3.3-.4-2,.4-1.8h0l1.1-2.5,1.7-2,2.5-2.1,2.9-2.1,5.8-2.9,5.5-2.1h0l12.1-4.1,12.2-3.3,11.5-2,12.1-1.2,11.6-.4,12.2.4,12.1,1.2,12.4,2h0l5.4.9,5,1.2,10,2.9h0l3.3.8,3.3,1.1h0l3.3,1.8h0l7.1,2.9,3.3,1.7,2.9,2.5h0l3.7,3.3,2.1,4.2h0v1.7h0v2.9l-.4,1.8-.4,1.1h0l-1.7,2.5-2.1,2.1h0l-.3.4h-.3l.2-.2Z"/>
          <path id="path2754" class="cls-1" d="M2261.6,164.8h0l-3.3,5.8-4.1,5-3.8,4.6-3.3,3.3v125.3h0l8.6-.4h13.7l8.3.4-.8-125.3h0l-7.5-8.3-3.7-4.5-4.1-5.8h0ZM2348.9,339.8h0l-3.3-2.5-3.7-2.1-7.6-3.7h0l-7.8-4.1h0l-4.6-1.8-4.5-1.1h0l-11.2-3-11.3-2.5-11.1-1.8-11.3-.8-11.6-.4-11.2.4-11.2,1.1-11.6,1.8h0l-6.3,1.2-6.2,1.7-12.2,4.1h0l-5.4,2.1-5,2.1h0l-7,3.3-6.6,3.8h0l-.4-2.1-.4-2h0l5.3-3.8,5.5-3.3h0l8.3-4.1,9.2-3.7,9.5-3.3,8.7-2.1h0l9.1-2.1,9.5-1.7h0l.4-78.4h0l-8.3,5.4-9.3,5.4-10,5.4-10.7,4.9-11.1,5-11.6,4.5-12.4,3.7-12.9,3.4h0l-6.3,1.7-2.9.4-3.3.4-4.5-5.4h0l13.6-3.3,13.3-3.3h0l7.9-2.5,7.5-2.5,7-3,7.6-2.9,7-3.3,7-3.3,7.1-3.8,6.6-3.8h0l10-7,8.3-6.2v-33.6h0l-7,5.9-6.3,5-6.3,4.1h0l-7.8,4.5h0l-14.2,7.9-7,3.7-7,2.9h0l-8.7,3.3h0l-9.2,3.3h0l-7,2.5h0l-7.5,2.1h0l-11.6,2.5h0l-9.2,2.1-8.6,2.1-9.3,1.1-9.4.9h0l-8.4-5h0l9.5-1.8,10.7-.8h0l6.3-1.1,6.3-1.3h0l7.5-1.1,10.3-2.5,12.2-3.3,12.1-3.7h0l8.4-3.3,7.4-3.3,7.5-3.3,6.6-3.3,6.6-3.8,6.3-3.7,6.3-4.1,6.3-4.5h0l5-4.1,4.6-3.8h0l2.1-1.7,1.7-2.5h0l10.7-11.5,5-6.3,4.6-7.1h.4l4.1,5.9,4.1,5.4,4.6,5.4,4.6,4.9,5,4.6,5.4,4.5,10.7,8.7h0l7.1,5,7.4,4.9h0l8.7,4.6h0l8.6,4.5h0l5.8,2.5h0l10.5,4.6h0l6.6,2.5h0l5.4,2,5.3,2.1h0l7.1,2h0l12.4,3.3,12.4,3.3h0l18.2,3.7h0l-1.2,1.7-1.7,1.3-2.9,2.5h0l-6.6-.4-6.2-.9-12.4-3.3h0l-17.5-5-8.7-2.9-8.2-2.9-8.3-3.3-8.4-3.8-8.3-4.1-7.8-4.5h0l-6.6-4.2h0l-7.6-5-7.4-5.3h0l-7.5-5.9-6.6-6.6h-.8v19.8h0v7.1l.4,3.7v3.7h0l12.4,8.7,12.1,7.4,12.2,7.1,12.4,5.8,12.8,5.3,13.7,5,14,4.1,15.4,4.6v.4h0l-4.6,4.5h0l-10.4-1.7-10.4-2.1-10-2.9-9.2-3.7-9.2-3.8-8.4-3.7-7.4-4.1-7.1-4.1-12.1-7.9-9.2-5.8-5.4-3.7-1.8-.4h-.4v.4h0v39.8l.4,39.4h0l8.4,1.1,7.8,1.2h0l7,1.8,6.6,1.7h0l7.9,2.5,7.8,3.3,7.6,3.8,7.4,4.1h0l3.3,2.9,2.9,2.5h0l.4,2.5-.4,2.5-.4.4h.2v.7l.5-.2Z"/>
          <path id="path2756" class="cls-1" d="M2384.5,256.9h0l-1.7.4h-1.2l-1.7-.4-1.2-1.2h0l-.9-1.7-.4-1.8.4-1.7.9-1.7h0l1.2-.4,1.1-.4h1.2l1.2.4.8.4,1.2.8.4.8.4,1.2h0v2.9l-.8.8-1.2,1.2h0v.2h.2v.2Z"/>
          <path id="path2758" class="cls-1" d="M2136,256.5h0l-1.7-.8-1.2-1.7-.4-2.1.4-1.7h0l.4-.9.9-.8,1.7-.8h2.1l1.8.8h0l.8.8.8,1.2v3h0l-1.2,2-1.2.8h-3l-.2.2Z"/>
          <path id="path2760" class="cls-1" d="M2362.1,251.4h0l-1.8-.8-.8-1.2-.8-1.7.4-1.8h0l.8-1.7,1.8-.8h2.1l1.6.8h0l.8.8.9,1.2v1.8l-.4,1.1h0l-.8,1.2-.8.4-1.1.4h-1.8v.2h0Z"/>
          <path id="path2762" class="cls-1" d="M2163.8,248.3h0l-.8.8-1.2.4h-2.9l-1.7-.8-.8-.8-.4-1.2v-1.7h0l.4-1.8,1.7-1.1,1.7-.8,1.7.4h0l1.3.4.4.4,1.2,1.8.4,2-.4,1.3-.4.8h0v-.2.2h-.2Z"/>
          <path id="path2764" class="cls-1" d="M2342.2,243.6h0l-1.8-.4-.8-1.1-.8-1.3v-1.7h0l.8-1.2,1.2-.8h2.9l1.8.4.8.8.8,1.2v1.1h0l-.4,1.8-1.1,1.2-1.8.4-1.7-.4h.1Z"/>
          <path id="path2766" class="cls-1" d="M2179.1,242.4h0l-.8-.4-.8-.8-.9-.9-.4-.8h0v-.8l.4-1.2.9-1.7,1.7-.9,1.3-.4.8.4h0l1.6.9,1.3,1.1.4,1.8v.8l-.4,1.1h0l-.9.9-1.1.8h-3.1Z"/>
          <path id="path2768" class="cls-1" d="M2326,234.9h0l-.8.4h-1.1l-2.1-.4-1.6-.8-.4-.8-.4-.8h0v-1.8l.4-1.1.8-1.2,1.1-.9h0l1.8-.4,2.1.4,1.2.9,1.1,1.7h0v1.2l-.4,1.2-.4,1.1-1.3,1.2h0Z"/>
          <path id="path2770" class="cls-1" d="M2204,232h0l-.4.9-1.2.7-1.2.4h-1.1l-1.3-.4-1.1-.4-.8-.8-.8-1.2h0v-1.2l.8-1.7,1.1-1.2,1.2-.8h3l.8.4.8.7.4,1.2.4,1.2v.8l-.4,1.2h0l-.2.2Z"/>
          <path id="path2772" class="cls-1" d="M2221.5,223.3h0l-1.8.8h-1.1l-1.8-.4-1.2-.8h0l-.4-.8v-1.2l.4-2.1,1.7-1.2.9-.8h2.1l1.2.4.8.4.4.8h0l.4,1.8v1.2l-.8,1.2-.8.8h0Z"/>
          <path id="path2774" class="cls-1" d="M2303.2,222.8h0l-1.7-.4-1.8-.9-.8-1.7-.4-1.8h0l.4-1.7,1.1-1.2,1.3-.8h2l1.8.4,1.1,1.2.9,1.7v1.8h0l-.4,1.1-1.2,1.2-.8.4-1.7.4h0l.2.3Z"/>
          <path id="path2776" class="cls-1" d="M2372.8,200.1h0l-6.3-1.1-5.8-1.8-6.3-2.1-5.8-2.1-5.9-2.5-5.8-2.9-5.9-3.3-5.8-3.3-10.7-7.5-10-7.8-9.2-8.4-7.9-8.6h0l5.9-5.3,4.5-5.9,3.8-5.4,3.3-5.4h0l5.8,11.3,5.8,10.3,6.6,9.6,3.8,4.5,3.7,4.6,4.1,4.5,4.5,4.1,4.6,4.1,5,4.1,5.4,4.1,5.8,4.1,12.4,7.8h.4v.3Z"/>
          <path id="path2778" class="cls-3" d="M2115.2,462.5l-10.4-29.4-30.7,5.4,19.9-23.6-19.9-23.7,30.7,5.4,10.4-29.4,10.7,29.4,30.7-5.4-19.8,23.7,19.8,23.6-30.7-5.4-10.7,29.4Z"/>
          <path id="path2780" class="cls-3" d="M2409.7,462.5l-10.7-29.4-30.3,5.4,19.9-23.6-19.9-23.7,30.3,5.4,10.7-29.4,10.7,29.4,30.7-5.4-20.4,23.7,20.4,23.6-30.7-5.4-10.7,29.4Z"/>
        </g>
        <g id="Ebene_1-3">
          <path class="cls-2" d="M717.3,494c2.8-4.4,6-8.3,7.7-10.6,3.8-4.9,3.1-23.2.5-28.4-2.7-5.1-18-16.6-28.7-30.8-10.9-14.2-.2-29.7,4.9-37.4s10.6-42.9,12.2-46.7,8-6,13.3-6.6,10.2-7.7,13.1-9.9,2.9,1.1,1.7,4.9c-1.1,3.8,6,5.5,12.8,6.6s15.5-3.1,17-5.5-1.3-5.5-3.3-9.3,4.6-8.2,6.8-9.8,6-.2,3.5,2.4c-2.4,2.7-3.8,5.7,0,13.1,3.8,7.3,12.6,11.7,21.5,12.4,8.8.6,18.1-2.4,29-10.6s15.5-20.8,16.4-26.2-4.6-21.5-7.7-32.5-13.7-12.4-21-12.2c-7.3.2-21.3,4-27.9,8-6.6,4-10.4,1.6-14.4-3.8-4-5.3.5-18.6,2.2-25.7,1.7-7.1,0-10.2-1.3-13.7s-2-14.2-1.1-17.7,3.5-7.6,1.1-10.2c-21-22.8-14.2-26.5-38.5-23-6.8,1-17.7-.9-20.4-3.1s-1.6-1.3-9.3-8.6c-6-5.6-14.7-10.1-16.9-10.8-5.3-1.7-14.9-7.8-23.9-1-8.3,6.3,7.2-1.3,11.6,19.1,2.1,9.6-30.1,43.4-43.4,54s-22.6,15.9-69.9,27.9c-47.3,12-81.4,0-109.3-17.7-27.9-17.7-37.7-72.1-39.9-92.6,0,0-.9-40.2,2.7-53.6,3.5-13.3-4-8.8-11.1-1.7-7.1,7.1-15,39.4-16.9,64.2-1.7,24.8,17.2,81.9,20.4,87.2s7.1,15.9-.5,18.1c-7.6,2.2-13.7-2.2-25.2,1.3-11.5,3.5-14.6,6.2-25.2,4.9s-20.4-15.9-28.4-18.1c-8-2.2-15.9,4.9-21.3,4.4s-15.9-6.6-22.1-10.2c-6.2-3.5-17.2-2.7-20.4,3.1-3.1,5.7,6.2,17.7,18.1,19.1,12,1.3,12.8,8,10.2,12s-16.9,8-22.6,13.7-11.5,6.2-23,4.4c-11.5-1.7-17.2,6.6-19.4,12.4-2.2,5.7,19.1,15.5,26.5,15.5s24.3-11.5,35.8-13.7,19.1,9.3,21.7,18.1c2.7,8.8,15,18.6,35,34.1,19.9,15.5,43.8,0,63.7-2.2s27,14.6,40.2,26.2c13.3,11.5,48.3,34.1,60.6,41.2,12.4,7.1,55.8,15,89,21.3,33.2,6.2,49.6,44.7,62.9,52.2,1.1.6,2.1,1.4,3.1,2.1l6.9,8c5.2,8.6,6.5,18.8,5.1,22.4-2.2,5.3-1.3,14.2,2.2,19.4,3.5,5.3,2.2,12.2,8.2,13.5,6,1.4,10.4-2,12-6s1.7-6,8.8-7.3,6.9-2.7,6.6-10.2c-.2-7.6-4.4-14.4-6.6-23.9-.6-2.6-.3-5.2.6-8l3.8-8h0ZM741.4,315.1c-5.1,5.7-10.2,13.5-26.8,14.2-16.6.6-26.3,2.7-32.3-9.3-6-12-12-39-5.7-46.5,6.2-7.6,13.1-15.5,26.2-17,10.1-1.2,28.6-1.1,33.9,6.2,5.3,7.3,7.3,14.2,7.1,28.4s2.9,18.3-2.2,24.1h0ZM839.5,303.8c-2.2,7.6-9.9,19.7-18.6,24.1-8.7,4.4-15.9,6.2-24.3,4-8.4-2.2-15-7.6-15.7-11.5-.6-4,1.7-5.1,8.2-9.5s9.7-10.8,10.6-18.1c.6-5.3-3.8-11.3-8.7-15.7-4.9-4.4-4.6-7.6,7.7-12.2,0,0,14.6-5.7,20.5-4.6,6,1.1,8.7-.2,14.6,14.8,6,15,7.7,21.3,5.5,28.7h0Z"/>
        </g>
        <g id="Ebene_1-4">
          <path class="cls-4" d="M1740.7,507.7c-4.9-4.7-11.2-13.8-20.1-24.8-8.9-11-33.2-34.1-38.9-35-5.8-.9-7.7-3.9-22.2-20.1-14.5-16.3-24.3-51.9-26.7-70.4s-13.4-41.3-21.7-49.8c-8.2-8.5-10.5-16.8-9.8-22.1s18.7,2.4,32.8,5.8,49.8.5,71.5-15c21.7-15.6,37.4-48.9,39.6-66.6s-5.4-8.7-8.7-4.6c-3.4,4.2-17.5,27.2-35.1,41.3-17.7,14-47.6,14-65.7,10.3-18.2-3.7-61.5-8.4-74.5-8.4s-20.5-2.8-49.4-7.9c-28.9-5.2-52.2,2.3-83.9,9.8-16.3,3.8-37.2,9.1-58.2,13.8l367.9-138.4h-15.9l-385.9,145c-8,1.3-15.7,2.3-22.6,2.9-33.5,2.8-33.4,4-56.4,10.3-25.8,7-33.5,25.4-35.7,29.5-2.1,4.2-10,15.9-15.4,18.9s-22.8,21.5-28.7,28.9c-5.9,7.5-28.4,26.4-30.8,29.5-2.3,3.3-12.8-.4-14.1-4.6-1.3-3.9-5-16.9-7.1-15s-1.4,23.1-3.3,26.5-13.3-2.3-20.1-10.3c-6.7-7.9-5.3-7-7.9-3.3s0,46.1-.3,48.4c-.2,2.2-6.1,6.5-13.3,18.9-7.2,12.4-7.7,22.4-5.9,25.3s2.6,10.2,1.6,14.5c-1,4.4-.7,10-4.2,20.4-2.6,7.8-9.8,15.4-7,19.6,2.3,3.4,2.7,8.4,3.4,9.6.7,1.2,5.1,9.2,21.1,8.6,12.6-.4,23.9-11.7,31.4-17.8s14.3-9.8,20.9-13.3c6.6-3.4,12.6-8.4,18.5-11.2s20.4-22.7,28.3-30.1c7.8-7.3,72.7-35.1,81.2-38.1,8.5-2.9,8.5,7.8,7.7,15.8-.9,7.8-9.6,37.6-12.4,46.3s-19.7,35.7-25.2,36.7c-5.4,1-17.7.5-20.2,8.7s11,8.4,26,7.5,20.2-11.5,21.3-14.1,6.6-5.3,15.6-14.1c8.9-8.9,11-16.8,15-20.6,4-3.9,2.8-10.3,5.1-15,2.2-4.7,17.7-35,22.1-40.6s12.9-5.3,26.4-4.4c13.4.9,30.4-8.2,37.6-10.7,7.2-2.4,8.4,13.3,7.2,22.1-1.2,8.7,4.7,18.2,17.7,34.8,12.9,16.6,37.2,15.8,43.3,15.8s15.6,6.8,15.9,12.4,4.2,7.8,9.6,7.2,5.6-5.3,7.7-7.7c2.1-2.4,2.9.3,9.6,2.1,6.6,1.7,21.7-1.4,26.5-3.5,4.9-2.1,16.3-24.1,22.7-34.8,6.5-10.7,24.1-33.3,26.4-39.8s-2.9-10.7-8.5-15.8-13.8-12.1-15.4-17.5c-1.6-5.4-5.3-11.9-3.7-15.6s17.1,4.9,21.7,9.3,33.3,22.6,46.9,31.3c13.4,8.7,60,47.2,77.3,58.4s33.2,25.5,35.7,32.8c2.4,7.3-4.7,6.8-7.3,11.7s5.3,7.5,14.8,8.2c9.6.7,7.5-4.7,12.1-7,4.6-2.2,4.6-5.6,5.6-13.4s-8.5-12.9-13.4-17.7h0v.2h0ZM1536.5,462.8c-6.6,11.2-14.3,26.5-16.5,30.8-2.1,4.2-13.4,13.6-15.5,14.1-2.1.4-2.3-3-4.7-2.3s-7.2,4.9-7.2,4.9c0,0-2.3-9.6-10-13.8s-34.3-12.3-39.4-14.9-5.3-2.3-6-11.6-4-36.4-5.9-46.9-7.7-20.2,3-32c10.7-11.6,26.9-1,26.9-1,9.5,5.6,26.2,12.9,33.5,19.6,7.3,6.6,18.9,16.5,24.1,16.1s12.6.3,16.5,14,7.7,11.9,1,23.1h.2Z"/>
        </g>
        <g id="Ebene_1-5">
          <path class="cls-4" d="M3159.3,542.2c-6.3-8.8-26.5-33-34.1-42-7.6-9-11.6-23.1-20.2-51.3-8.7-28.2-33.9-54.2-45.7-66.9-11.8-12.8-52.8-61.9-57.1-70-4.2-8.2-33.7-40.5-38.6-47.6-4.9-7.1-6.3-14.6-4.9-43.6,1.3-28.9-4.1-45.8-5.1-51.7-1-5.9,3.4-6.5,6.3-5.6s11.5,14.1,12.2,13.7c.8-.4-.3-9-1.3-12.9-1-3.8-10.3-14.9-12.8-18.4s-9-14.6-10.8-20.2c-1.7-5.6-3.8-9.9-9.4-13.9s-31.5-17.3-35.8-19.4-9.4,3.5-13.9,5.2c-4.2,1.7-10.8-4.2-16-7.7s-28.1-16.7-32.3-17.7c-4.2-.9-5.2,6.9-9.9,12.1,0,0-5.9,4.7-5.6,7.9.3,2.8,1.3,8.8,0,18.5-1.3,9.7,10,21.1,17.8,27.5,7.7,6.5,17.4,24.6,17.8,28.1.3,3.6-4.8,11.1-4.5,15.6s4.2,16.7,2,27.5c-2.3,10.7-6.8,33.7-7.7,48.2-1,14.5-3.6,7.7-12.9,24-9.3,16.2-6.2,58.9-2.9,73.1,3.2,14.2,12.2,39.8,12.6,43.7.3,3.8-.3,29.2-.3,41.1s-10,49.8-13.6,55.3c-3.6,5.5-16.7,6.8-23,8.1-6.2,1.3-7.7,13.3-4.2,15.2s3.8,6.8,3.8,8.1,10,.7,18.8,0c8.8-.7,8.4,4.5,8.1,11.4-.3,6.8-3.6,9-7.4,9.3s-9.3,2-14.5,7.1c-5.2,5.2-4.2,13.9.7,17.8,4.8,3.8,17.4,6.8,29.2,4.8,11.6-2,11.6-16.5,13.3-30.1s4.2-16.5,9-18.8c4.8-2.3,5.5-10.4,3.6-15.2-2-4.8,1.6-15.6,3.2-19.7,1.6-4.2,11.1-37.5,12.2-46.2,1.3-8.8,4.2-5.5,7.4-3.6s12.6,10,16.7,17.8c4.2,7.7,12.2,22.3,16.5,25.2,4.2,2.9,4.8,5.9-1.6,8.4-6.5,2.6,1,18.1,5.2,18.5,4.2.3,6.8,4.8,8.8,9.3s16.2,4.5,22.3,5.9c6.2,1.3,14.5,3.8,23.3,11.1,8.8,7.1,15.2,14.5,14.2,17.4s-10.7,2.6-16.5,1.6c-5.9-1-34-5.2-43.4-3.6s-17.8,11.6-17.8,18.8,17.8,5.9,25.2,7.1c7.4,1.3,26.3,3.6,33.3,3.2,7.1-.3,64.1,1,67,.3s3.2-12,3.6-13.9c.3-2,6.5-1.6,12-3.2s9.7-6.2,15.9-15.2c6.2-9,12.6-10.7,23-12.9,10.4-2.3,15.6,5.9,22.3,11.1,6.8,5.2,14.9,14.5,14.9,19s-1.6,11.1-13.9,15.9c-12.2,4.8-36,2-40.1.4-4.1-1.5-13.9-9.1-15.5-9.3s-1.6,2-1.7,4c0,2.1,5.4,9.3,18.5,16.7,13.2,7.3,30.2,10.5,53,6,22.9-4.5,29.2-24.6,30.9-33.2,1.7-8.7-3.1-17.9-9.3-26.7h.3l-.4-.5h0ZM2941,411.4l-55.3-68.3,64.1-85.3,89.6,107.8-98.4,45.9h0Z"/>
          <path class="cls-4" d="M2998.7,328.8l-17.8-22.2-23.4,18.8-18.6-23.3-21.2,16.9,18.7,23.4-23.4,18.8,17.8,22.2,23.4-18.7,17.8,22.3,21.2-16.9-17.9-22.3,23.5-18.8v-.2h0ZM2987,369.1l-14.7,11.7-17.9-22.4-22.7,18.2-11.8-14.7,22.7-18.2-18.6-23.3,14.7-11.7,18.6,23.3,23-18.5,11.8,14.7-23,18.5,17.9,22.4h0Z"/>
        </g>
        <g id="Ebene_1-6">
          <path class="cls-4" d="M4258.9,176.4c-5.9-20.6-45.4-59.9-58.1-72.7-12.6-12.9-27.5-15.9-30.4-16.2-3-.4-8.3-4.7-12.6-7.6-4.4-2.8-6.5-9.1-10.2-11.7-3.7-2.4-20.4-.7-21.7-.9s-8-14.9-8.8-16.5c-.7-1.6-.2-4.1-2.2-9.5-2-5.3-6.7-11.7-16.3-15.6-9.8-3.9-21.8-.9-23,.4-1.3,1.3-6.7,3.3-6.7,3.3l-9.5.4,1.3,3.9c-3.5,1-10.8,13.2-12.3,16.1-1.6,2.8-1.7,15.9-1.7,15.9l2.4,1.3s-.2,2.4,1,9.1,4.9,5.6,5.6,7,1.4,8.8.7,11.7c-.7,2.8-9.1,3.9-9.5,5.3-.4,1.4-5.6,6.7-9.8,12.6-4.1,6-15.9,31.8-21.8,33.7-2.9.8-3.2-2.1-4.6-3.7-1.4-1.6-9.5,4.1-16.7,9s-25.6,20.8-34.3,33.1c-7.7,11-15.4,23.9-13,34.9,1.2,5.4,7.8,9.8,19.3,14.5,11.7,4.7,17.1,3.9,21.7,2.4,4.6-1.4,11.5-2.3,15.2-1.4s11,8.3,13.5,9.1,9.1-.2,14.6-.5c5.4-.4,9.8-4.4,12.2-5.9,2.3-1.4,4.1,0,4.1,1.4s-7.8,33.8-8,46c-.4,12.2,4.7,16.7,5.6,18.8.9,2.2-.9,3.3-2.6,4.6s.7,6.1.7,6.1c0,0-2.8,5.4-4.1,25.5-1.4,20.1,4.9,26.8,12.3,37.1s31.8,47,32.1,51.2-6,13.2-10.2,18.5c-4.1,5.3-33.2,43-40.3,53.3-7,10.4-3.2,15.6,0,20.4s3.7,6.7,4.4,9,9.3,12.9,8.8,14.5-7,15.9-3.5,23.9,10.8,10.4,15.4,10.8c4.7.4,9.3-5.2,10.6-5.9s3.2.5,3,1.7-1.3,13.2-1,24.3c.2,11,10.9,13.5,16.1,14.1,5.2.5,36.9,2.2,47.7,1.7,10.8-.4,9.1-6.9,8.6-10.2s-8.5-4.1-10.9-5.9-2.4-8,0-14.5c2.4-6.3,13.7-27.6,15.4-34.1,1.6-6.5,6-17.1,9.1-24.5,3.2-7.4,4.1-14.1,4.9-17.4.7-3.3,17.1-21.1,22.5-27.5,5.4-6.3,8.6-18,11-25.5,2.4-7.6-1-39.4-2.6-48.9s.7-47.7.4-62.3c-.4-14.6-1.7-44.5.5-50.5,2.3-6,5.3-15.9,3-35-2.3-19.2-.7-57.9,1.3-61.2s4.7.7,7.2,5.3c2.4,4.6,7.2,12.9,3.9,15.4-3.3,2.4-.5,8.6-2.8,10.2s-3,5.9-3,7-2.6,2.4-4.1,4.1c-1.4,1.6,1.7,20.1,2,23.2.2,3.2,9.8,5.9,13.5,7.4,3.7,1.6,5.4-1.6,7.9-2.2,2.4-.5,4.9-.2,9.5.9s7.8,2.3,8,.9-.9-3.2-2.3-4.6.4-2.3.4-2.3c7.9-3.7,19.3-20.1,19.8-23.8.4-3.7,4.9-7.2,6.5-14.1s1.3-27.8-4.6-48.4l-.2.3h-.3v-.3ZM4052.8,202c-1,5.6-6.7,24.7-8,27.7-1.4,3-4,7.4-14.5,7.8-10.6.4-17.6,0-22.4-4.1s-6-5.3-4.5-10.4c1.5-5.2,2.5-10.3,0-7.9-2.6,2.3-5.9,10.4-9.2,11.7s-18,5.1-26.2,2.6c-8.2-2.3-17.2-10.2-14-21.9s27.6-37.8,31-40.8,18.7-15.9,21.1-16.8,8-2.6,6.6,2.2c-1.5,4.8-5.6,6.5-9.3,7s-7.8,4.7-3.3,9.6c2.1,2.2,14.5,15.1,14.7,18.6,0,3.6-1.5,8.5.3,9.2s13.3-2.2,17.8-2c4.5,0,8,1.4,12.5,1.6,4.5.3,8.7,0,7.7,5.6v.2h-.3Z"/>
          <path class="cls-4" d="M3931.9,182.1c3.3-2,12.2-8.5,14.6-10.1s6.4-1,9.3,1.4c2.9,2.3,3.7,7.9-.2,13.7s-11,16.4-12.3,21.8c-1.4,5.4-.9,16.3,2.4,19.2s7.9,7.2,12.7,7.1,9.8.8,9.8,4.9c.2,4.1-2.5,7.9-9.4,7.9s-13-1.5-17.6,1.7-19.8,16.7-22.7,18.7c-2.9,2.1-4.7,5.3-7.9,9.1s-6.8,3.2-9.8,5.2c-3.1,2.1-8.8,9-9.1,12.9-.3,4-.4,10.3-3.8,16-3.4,5.6-9.5,15.2-9.9,16.2-.5,1-1.4,2,1.8,2.5,3.3.6,7.9.2,10.3,4.5,2.4,4.3,9.5,16.1,11.7,20.1,2.2,4.1,3,12.4-.2,15.7s.7,5.4,1.5,7,2.3,10.2-3.3,13.1-6.9,3-12.1,8.5-9.2,9.6-16.7,5.9c-7.5-3.8-10.6-4.7-9.1-10.2,1.4-5.4,10.8-7.5,13.3-7.8s4.1-.4,4.6-2.2c.5-2.2-2.8-4.4-6-5.3,0,0-11.7-3-19.9-11,0,0-4.4-5.2-6.8-4.1-2.3,1-11.7,11.9-20.1,15.7-8.5,3.8-33.1,12.5-40.9,13.8-7.8,1.4-29.9,3.3-36.5,4.8-6.6,1.6-35.7,11.3-42.5,20.6-6.8,9.3-13.5,17.9-14.2,23-.7,5.2-9.3,15.5-11.7,18.6-2.4,3.1-12.4,20-37.6,32.4-25.2,12.5-36.4,12.9-48.8,21.4-12.4,8.5-29.2,19.5-31.5,21.6s-5.9,6.1-3.5,7.2,4.8.2,5.4,1.6c.7,1.5,3,1.7,2.8,3.7s-.7,5.6-7,5.6-14.8,1.3-17.4-2-3.2-12.5.7-17.8,21.1-19.4,22.2-20.7,2.1-3.2-.6-2.5-7.9,2.8-25,15.2c-17.2,12.3-17.2,11.7-19.1,12.9-1.7,1.2-2.5,3.4-1.2,3.8s3.8.3,4.1,1.5,2.2.5,1.6,3.8-4.1,6.2-12.2,5.7c-7.9-.5-9.9-3.8-10.4-8.3s7.5-13.3,15.2-19c7.7-5.6,18.5-17,19.4-18.7s7.9-10.2,14.8-12.2c6.8-2,13.2-9.4,14.5-11.4s10.1-17.2,11.1-20.7,2.9-9.4,2.5-12.4c-.2-1.8,0-6.8-5.2-4.9s-32.4,8.5-46.8,5.5c-14.3-2.9-50.1-19.8-49.1-49.1,0,0,14.5,16.9,26.9,24.6s36.2,8.7,49.4,4.1,21.1-8.2,25.4-9.8c4.3-1.6,10.6-10,15.5-12.6,5.1-2.6,17.7-14.3,28.5-21.7,10.8-7.4,93.5-60,99.5-63.6,6-3.7,49.1-40.6,52.6-46.3,3.4-5.5,11.7-19.1,29.1-29.1,17.4-10,42.7-24,50-26.6s7.4-3.7,11-6.9c3.7-3.2,14.8-12.4,15.4-13.5s2-15.7,2-17.9.5-4.4,1.3-3.8,4.6,11.5,4.9,11.7,3.5,0,3.8-.4,9.2-9.2,16.9-9.8c7.7-.5,13.3,2.8,19.4-.7l.3.5h.3l-.4.7Z"/>
        </g>
      </g>
    </g>
  </g>
</svg>